<svg width="20" height="20" viewBox="0 0 20 20" fill="none" xmlns="http://www.w3.org/2000/svg">
<path d="M10 18.3333C5.39765 18.3333 1.66669 14.6024 1.66669 9.99999C1.66669 5.39762 5.39765 1.66666 10 1.66666C14.6024 1.66666 18.3334 5.39762 18.3334 9.99999C18.3283 14.6003 14.6003 18.3283 10 18.3333ZM10 3.33332C6.31812 3.33332 3.33335 6.31809 3.33335 9.99999C3.33335 13.6819 6.31812 16.6667 10 16.6667C13.6819 16.6667 16.6667 13.6819 16.6667 9.99999C16.6626 6.31981 13.6802 3.33746 10 3.33332ZM14.1667 10.8333H9.16669V5.83332H10.8334V9.16666H14.1667V10.8333Z" fill="black"/>
</svg>
