<svg width="40" height="40" viewBox="0 0 40 40" fill="none" xmlns="http://www.w3.org/2000/svg">
<path d="M20.0001 36.6668C13.256 36.6706 7.17421 32.6099 4.59283 26.3794C2.01145 20.1489 3.43929 12.9768 8.21005 8.21001C12.4222 3.99785 18.5616 2.35281 24.3155 3.89457C30.0694 5.43633 34.5637 9.93065 36.1055 15.6846C37.6473 21.4385 36.0022 27.5778 31.7901 31.79C28.6691 34.925 24.4237 36.6811 20.0001 36.6668ZM6.66672 20.2867C6.74558 27.6221 12.7352 33.5159 20.071 33.4767C27.4067 33.4371 33.3326 27.4792 33.3326 20.1433C33.3326 12.8075 27.4067 6.84963 20.071 6.81C12.7352 6.77077 6.74558 12.6646 6.66672 20V20.2867ZM15.6817 26.6667L13.3334 24.3167L17.6501 20L13.3334 15.6833L15.6834 13.3333L20.0001 17.65L24.3167 13.3333L26.6667 15.6833L22.3501 20L26.6667 24.3167L24.3184 26.6667L20.0001 22.35L15.6834 26.6667H15.6817Z" fill="#F23C30"/>
</svg>
