<svg width="86" height="86" viewBox="0 0 86 86" fill="none" xmlns="http://www.w3.org/2000/svg">
<path d="M40.0348 13.2685C40.66 12.2943 40.3974 10.9771 39.4511 10.3411L35.2295 7.50351C34.3013 6.87964 33.0629 7.14615 32.4497 8.10162L27.2223 16.2467L35.398 20.4931L40.0348 13.2685Z" fill="black"/>
<path d="M47.218 26.6323L51.045 20.669C51.6702 19.6947 51.4076 18.3776 50.4613 17.7415L46.2397 14.904C45.3116 14.2801 44.0731 14.5466 43.4599 15.5021L39.0422 22.3858L47.218 26.6323Z" fill="black"/>
<path d="M51.8367 38.9067L48.1351 37.1978C46.9903 36.6693 46.5793 35.1973 47.2741 34.1143L54.4695 22.9023C55.0828 21.9469 56.3212 21.6804 57.2494 22.3042L60.6017 24.5577C61.548 25.1937 61.8106 26.5109 61.1854 27.4851L54.3394 38.1527C53.7933 39.0036 52.7364 39.3221 51.8367 38.9067Z" fill="black"/>
<path d="M70.7438 31.374L67.3914 29.1207C66.4633 28.4969 65.2249 28.7634 64.6116 29.7188L58.473 39.2842C57.7781 40.367 58.1891 41.839 59.3339 42.3675L63.0355 44.0765C63.9352 44.4918 64.992 44.1735 65.5381 43.3224L71.3275 34.3013C71.9527 33.3274 71.6901 32.0102 70.7438 31.374Z" fill="black"/>
<path d="M61.3924 47.9141C62.1729 48.2745 63.0016 48.4573 63.8545 48.4573C65.5526 48.4573 67.147 47.7231 68.2835 46.4576V52.6031C68.2835 56.7546 66.2983 60.6078 62.973 62.9105C62.2229 63.4301 61.7158 63.7824 61.7158 63.7824C61.1552 64.1721 60.8186 64.8266 60.8186 65.5275V76.734C60.8186 77.8935 59.9136 78.8336 58.7974 78.8336H28.229C26.9141 78.8336 25.9492 77.5499 26.2682 76.2247L29.9642 60.867C30.1109 60.2579 29.9873 59.6126 29.6275 59.1081L14.7304 38.2168C14.2229 37.5051 14.1999 36.5392 14.6729 35.8023L23.9732 21.3104C24.5386 20.4294 25.6471 20.1235 26.5588 20.5971L42.9103 29.09C43.9977 29.6548 44.3625 31.0818 43.6881 32.1326L42.4516 34.0595C42.0767 34.6436 41.4456 34.9946 40.7698 34.9946H28.0034C26.8547 34.9946 25.9298 35.9899 25.9845 37.1957C26.0357 38.325 26.9722 39.1938 28.0606 39.1938H36.7075L46.0767 58.6591C46.5634 59.6702 47.7303 60.1518 48.7255 59.6942C49.788 59.2057 50.2314 57.9014 49.7178 56.8341L41.227 39.1938H42.5043L61.3924 47.9141Z" fill="black"/>
</svg>
