<svg width="86" height="86" viewBox="0 0 86 86" fill="none" xmlns="http://www.w3.org/2000/svg">
<path d="M75.25 75.25H10.75V10.75H75.25V75.25ZM32.6083 61.748L27.7063 64.7723C28.4703 66.4491 29.7085 67.8654 31.2682 68.8466C32.9625 69.8176 34.8877 70.3128 36.8403 70.2799C37.8644 70.2728 38.8847 70.1526 39.8825 69.9216C41.9702 69.4079 43.74 68.0291 44.7487 66.1304C45.7538 63.7654 46.1243 61.179 45.8237 58.6269C45.8237 58.1396 45.8237 57.6415 45.8237 57.1398C45.8416 53.4597 45.8237 49.7152 45.8237 46.0888C45.8237 44.2398 45.8237 42.3872 45.8237 40.5311V40.3806H39.775C39.775 42.9821 39.775 45.5776 39.775 48.1672C39.775 50.7723 39.775 53.3737 39.775 55.9824C39.775 56.6489 39.775 57.3011 39.775 57.9282C39.9549 59.7167 39.8252 61.5229 39.3916 63.2673C38.871 64.2719 37.7999 64.8675 36.6718 64.7795C36.1665 64.7781 35.6642 64.702 35.1812 64.5537C34.2107 64.0463 33.4283 63.2414 32.9487 62.2568L32.8305 62.0562C32.7194 61.8662 32.6442 61.7337 32.6083 61.7337V61.748ZM53.9256 61.0313L49.0057 63.8514C49.4085 64.7328 49.9641 65.5359 50.6468 66.2236C50.8152 66.4099 51.0052 66.6106 51.1807 66.8327C53.5866 68.9843 56.7307 70.1231 59.9563 70.0112C64.1306 70.4225 68.0742 68.0256 69.6313 64.1309V64.1022C70.0392 62.6707 70.1042 61.1633 69.8213 59.7019L69.9431 59.8775C69.4128 56.5486 67.0012 54.2373 61.8734 52.1554C61.4757 51.9691 61.0636 51.7971 60.6622 51.6179C59.0677 50.9299 57.5627 50.2849 57.0395 49.1096C56.8064 48.505 56.7639 47.8435 56.9177 47.214C57.2887 45.9531 58.5054 45.1355 59.813 45.2682C60.2122 45.2683 60.6093 45.3262 60.9919 45.4402C62.1712 45.8376 63.1252 46.7186 63.6149 47.8626C66.392 46.0458 66.392 46.0458 68.3306 44.8382C67.8871 44.0812 67.3594 43.3768 66.7575 42.7384C64.918 40.7666 62.2789 39.7426 59.5908 39.9578H59.1608L57.2688 40.1978C55.492 40.5966 53.8844 41.5414 52.6714 42.8997C51.2455 44.6829 50.6034 46.968 50.8917 49.2329C51.1801 51.4978 52.3743 53.5491 54.2015 54.9182C55.7709 55.9923 57.4636 56.8741 59.2432 57.5448C61.5402 58.5122 63.5217 59.3364 63.9231 60.845C64.1659 61.7187 63.987 62.6557 63.4393 63.3784C62.4666 64.3389 61.1211 64.8237 59.7593 64.7043C59.3843 64.7031 59.0097 64.6792 58.6377 64.6326C56.6112 64.1785 54.886 62.8581 53.9184 61.0206L53.9256 61.0313Z" fill="black"/>
</svg>
