<svg width="86" height="86" viewBox="0 0 86 86" fill="none" xmlns="http://www.w3.org/2000/svg">
<path d="M64.5 78.8333H21.5C17.5419 78.8333 14.3333 75.6247 14.3333 71.6667V14.3333C14.3333 10.3753 17.5419 7.16666 21.5 7.16666H46.5833C46.6224 7.16835 46.661 7.17559 46.698 7.18816C46.733 7.19897 46.769 7.20617 46.8055 7.20966C47.1215 7.22991 47.4335 7.29135 47.7336 7.39241L47.8339 7.42466C47.9151 7.45218 47.9942 7.48572 48.0704 7.52499C48.4608 7.69851 48.8165 7.94132 49.1203 8.24166L70.6203 29.7417C70.9206 30.0455 71.1635 30.4012 71.337 30.7916C71.3728 30.8704 71.3979 30.9528 71.4266 31.0352L71.4588 31.1284C71.5588 31.4272 71.6179 31.7382 71.6344 32.0529C71.64 32.0858 71.6483 32.1182 71.6595 32.1497C71.6658 32.1827 71.6682 32.2164 71.6671 32.25V71.6667C71.6671 75.6247 68.458 78.8333 64.5 78.8333ZM21.5 14.3333V71.6667H64.5V35.8333H46.5833C44.6043 35.8333 43 34.229 43 32.25V14.3333H21.5ZM50.1666 19.4002V28.6667H59.4331L50.1666 19.4002Z" fill="black"/>
</svg>
