<svg width="86" height="86" viewBox="0 0 86 86" fill="none" xmlns="http://www.w3.org/2000/svg">
<path d="M71.6667 71.6667H14.3333C10.501 71.7814 7.29715 68.7761 7.16666 64.9443V21.0521C7.29714 17.2208 10.5016 14.2166 14.3333 14.3333H71.6667C75.4984 14.2166 78.7028 17.2208 78.8333 21.0521V64.9479C78.7009 68.7783 75.4976 71.7814 71.6667 71.6667ZM14.3333 21.5V64.4606L71.6667 64.5V21.5394L14.3333 21.5ZM48.1242 57.3333H21.5C21.7635 54.3665 23.1675 51.6176 25.4166 49.665C27.9207 47.1807 31.2854 45.7563 34.8121 45.6875C38.3388 45.7563 41.7034 47.1807 44.2076 49.665C46.4561 51.6181 47.86 54.3668 48.1242 57.3333ZM64.5 53.75H53.75V46.5833H64.5V53.75ZM34.8121 43C32.8917 43.0667 31.0298 42.3331 29.671 40.9744C28.3123 39.6156 27.5787 37.7537 27.6454 35.8333C27.5797 33.9132 28.3137 32.052 29.6722 30.6935C31.0307 29.335 32.892 28.601 34.8121 28.6667C36.7322 28.601 38.5934 29.335 39.9519 30.6935C41.3104 32.052 42.0444 33.9132 41.9787 35.8333C42.0455 37.7537 41.3119 39.6156 39.9531 40.9744C38.5944 42.3331 36.7325 43.0667 34.8121 43ZM64.5 39.4167H50.1667V32.25H64.5V39.4167Z" fill="black"/>
</svg>
