<svg width="90" height="90" viewBox="0 0 90 90" fill="none" xmlns="http://www.w3.org/2000/svg">
<path d="M45 78.75C28.4315 78.75 15 65.3185 15 48.75C15 32.1815 28.4315 18.75 45 18.75C61.5685 18.75 75 32.1815 75 48.75C74.9814 65.3108 61.5608 78.7314 45 78.75ZM45 26.25C32.5736 26.25 22.5 36.3236 22.5 48.75C22.5 61.1764 32.5736 71.25 45 71.25C57.4264 71.25 67.5 61.1764 67.5 48.75C67.4855 36.3296 57.4204 26.2645 45 26.25ZM48.75 52.5H41.25V33.75H48.75V52.5ZM72.3488 28.9013L64.8488 21.4012L70.1512 16.0988L77.6513 23.5988L72.3525 28.8975L72.3488 28.9013ZM56.25 15H33.75V7.5H56.25V15Z" fill="black"/>
</svg>
